<?xml version="1.0" encoding="UTF-8"?>
<!DOCTYPE svg PUBLIC "-//W3C//DTD SVG 1.1//EN" "http://www.w3.org/Graphics/SVG/1.1/DTD/svg11.dtd">
<svg xmlns="http://www.w3.org/2000/svg" version="1.1" width="48px" height="48px" style="shape-rendering:geometricPrecision; text-rendering:geometricPrecision; image-rendering:optimizeQuality; fill-rule:evenodd; clip-rule:evenodd" xmlns:xlink="http://www.w3.org/1999/xlink">
<g><path style="opacity:0.996" fill="#2296f3" d="M 4.5,4.5 C 17.1667,4.5 29.8333,4.5 42.5,4.5C 42.5,14.5 42.5,24.5 42.5,34.5C 32.8276,34.3335 23.1609,34.5002 13.5,35C 10.9841,37.6833 8.31745,40.1833 5.5,42.5C 4.50092,29.8508 4.16759,17.1842 4.5,4.5 Z"/></g>
<g><path style="opacity:1" fill="#d6ebfc" d="M 13.5,17.5 C 16.8606,18.2032 17.1939,19.5365 14.5,21.5C 12.3576,20.5629 12.0243,19.2296 13.5,17.5 Z"/></g>
<g><path style="opacity:1" fill="#d6ebfc" d="M 22.5,17.5 C 25.8606,18.2032 26.1939,19.5365 23.5,21.5C 21.3576,20.5629 21.0243,19.2296 22.5,17.5 Z"/></g>
<g><path style="opacity:1" fill="#d6ebfc" d="M 31.5,17.5 C 34.8606,18.2032 35.1939,19.5365 32.5,21.5C 30.3576,20.5629 30.0243,19.2296 31.5,17.5 Z"/></g>
</svg>
